<svg xmlns="http://www.w3.org/2000/svg" viewBox="0 0 800 140" width="800" height="140">
  <defs>
    <filter id="glow">
      <feGaussianBlur stdDeviation="6" result="b"/>
      <feMerge><feMergeNode in="b"/><feMergeNode in="SourceGraphic"/></feMerge>
    </filter>
  </defs>

  <!-- background -->
  <rect width="800" height="140" rx="12" fill="#141210"/>
  <rect width="800" height="140" rx="12" fill="none" stroke="#2e2820" stroke-width="1"/>

  <!-- glow -->
  <ellipse cx="72" cy="100" rx="36" ry="14" fill="#c47b2b" opacity="0.25">
    <animate attributeName="opacity" values="0.15;0.35;0.15" dur="2s" repeatCount="indefinite"/>
    <animate attributeName="rx" values="30;42;30" dur="2s" repeatCount="indefinite"/>
  </ellipse>

  <!-- flame back -->
  <path d="M64 92 Q54 72 62 52 Q70 38 68 54 Q78 40 74 58 Q82 46 78 62 Q84 54 80 68 Q76 80 72 88Z" fill="#b05a10" opacity="0.6">
    <animateTransform attributeName="transform" type="skewX" values="0;3;-2;1;0" dur="2.0s" repeatCount="indefinite" additive="sum"/>
    <animate attributeName="opacity" values="0.5;0.7;0.5" dur="2.0s" repeatCount="indefinite"/>
  </path>

  <!-- flame mid -->
  <path d="M65 92 Q57 74 63 56 Q70 44 69 58 Q77 46 74 62 Q80 52 77 66 Q74 78 72 88Z" fill="#e8a45a" opacity="0.85">
    <animateTransform attributeName="transform" type="skewX" values="0;-3;2;-1;0" dur="1.6s" repeatCount="indefinite" additive="sum"/>
    <animate attributeName="opacity" values="0.75;0.95;0.75" dur="1.6s" repeatCount="indefinite"/>
  </path>

  <!-- flame front -->
  <path d="M67 91 Q61 76 65 62 Q70 52 70 64 Q75 55 73 67 Q77 60 75 72 Q73 82 72 88Z" fill="#f5d09a" opacity="0.7">
    <animateTransform attributeName="transform" type="skewX" values="0;2;-2;0" dur="1.2s" repeatCount="indefinite" additive="sum"/>
    <animate attributeName="opacity" values="0.6;0.85;0.6" dur="1.2s" repeatCount="indefinite"/>
  </path>

  <!-- sparks -->
  <circle cx="64" cy="52" r="1.3" fill="#f5d09a">
    <animate attributeName="opacity" values="0;0.9;0" dur="2.8s" repeatCount="indefinite"/>
    <animate attributeName="cy" values="52;20" dur="2.8s" repeatCount="indefinite"/>
    <animate attributeName="cx" values="64;68" dur="2.8s" repeatCount="indefinite"/>
  </circle>
  <circle cx="78" cy="46" r="1.0" fill="#e8a45a">
    <animate attributeName="opacity" values="0;0;0.9;0" dur="3.2s" begin="0.5s" repeatCount="indefinite"/>
    <animate attributeName="cy" values="46;46;14" dur="3.2s" begin="0.5s" repeatCount="indefinite"/>
  </circle>
  <circle cx="60" cy="50" r="0.9" fill="#f5d09a">
    <animate attributeName="opacity" values="0;0;0.8;0" dur="2.5s" begin="1.1s" repeatCount="indefinite"/>
    <animate attributeName="cy" values="50;50;18" dur="2.5s" begin="1.1s" repeatCount="indefinite"/>
    <animate attributeName="cx" values="60;60;55" dur="2.5s" begin="1.1s" repeatCount="indefinite"/>
  </circle>
  <circle cx="80" cy="54" r="1.1" fill="#e8a45a">
    <animate attributeName="opacity" values="0;0.9;0" dur="3.5s" begin="0.3s" repeatCount="indefinite"/>
    <animate attributeName="cy" values="54;22" dur="3.5s" begin="0.3s" repeatCount="indefinite"/>
    <animate attributeName="cx" values="80;84" dur="3.5s" begin="0.3s" repeatCount="indefinite"/>
  </circle>

  <!-- rocks -->
  <ellipse cx="72" cy="98" rx="24" ry="7"  fill="#2e2820"/>
  <ellipse cx="56" cy="100" rx="9" ry="5"  fill="#3a3228"/>
  <ellipse cx="72" cy="101" rx="7" ry="4"  fill="#28231a"/>
  <ellipse cx="88" cy="100" rx="9" ry="5"  fill="#3a3228"/>

  <g transform="translate(136.00,0)">
    <path d="M13.558912386706949 76.68277945619336Q13.558912386706949 78.61027190332327 14.65558912386707 79.07552870090635Q15.75226586102719 79.54078549848943 20.537764350453173 79.54078549848943H22.332326283987918Q29.444108761329307 79.54078549848943 32.50151057401813 77.84592145015105Q35.55891238670695 76.1510574018127 38.01812688821752 70.76737160120845H39.87915407854985L36.888217522658614 82.0H0.9969788519637462V80.73716012084593Q4.652567975830816 80.47129909365559 5.716012084592145 79.37462235649546Q6.779456193353474 78.27794561933534 6.779456193353474 74.75528700906344V45.244712990936556Q6.779456193353474 41.72205438066465 5.716012084592145 40.625377643504535Q4.652567975830816 39.52870090634441 0.9969788519637462 39.26283987915408V38.0H36.290030211480364L36.48942598187311 47.50453172205438H34.82779456193354Q33.963746223564954 43.051359516616316 32.16918429003021 41.78851963746224Q30.37462235649547 40.52567975830816 24.725075528700906 40.52567975830816H15.75226586102719Q14.422960725075528 40.52567975830816 13.990936555891238 40.957703927492446Q13.558912386706949 41.389728096676734 13.558912386706949 42.78549848942598V57.54078549848943H23.794561933534744Q28.048338368580062 57.54078549848943 29.27794561933535 56.244712990936556Q30.507552870090635 54.948640483383684 31.10574018126888 51.22658610271903H32.6344410876133V66.64652567975831H31.10574018126888Q30.441087613293053 62.52567975830816 29.178247734138974 61.39577039274924Q27.915407854984895 60.26586102719033 23.794561933534744 60.26586102719033H13.558912386706949Z" fill="#f0e8d8"/>
  </g>
  <g transform="translate(180.54,0)">
    <path d="M23.72809667673716 79.40785498489426Q25.456193353474323 79.40785498489426 26.95166163141994 79.20845921450152Q28.44712990936556 79.00906344410876 29.577039274924473 78.77643504531721Q30.706948640483386 78.54380664652568 31.770392749244714 78.01208459214502Q32.833836858006045 77.48036253776435 33.49848942598187 77.14803625377644Q34.1631419939577 76.81570996978851 34.86102719033232 76.05135951661632Q35.55891238670695 75.2870090634441 35.92447129909365 74.95468277945619Q36.290030211480364 74.62235649546828 36.755287009063444 73.7250755287009Q37.220543806646525 72.82779456193353 37.35347432024169 72.56193353474319Q37.48640483383686 72.29607250755286 37.88519637462235 71.3987915407855Q38.283987915407856 70.50151057401813 38.283987915407856 70.43504531722054H39.94561933534743L36.755287009063444 82.0H0.9969788519637462V80.73716012084593Q4.652567975830816 80.47129909365559 5.716012084592145 79.37462235649546Q6.779456193353474 78.27794561933534 6.779456193353474 74.75528700906344V45.244712990936556Q6.779456193353474 41.72205438066465 5.716012084592145 40.625377643504535Q4.652567975830816 39.52870090634441 0.9969788519637462 39.26283987915408V38.0H19.740181268882175V39.26283987915408Q15.818731117824774 39.52870090634441 14.688821752265861 40.625377643504535Q13.558912386706949 41.72205438066465 13.558912386706949 45.244712990936556V76.68277945619336Q13.558912386706949 78.41087613293051 14.589123867069485 78.90936555891238Q15.619335347432024 79.40785498489426 19.274924471299094 79.40785498489426Z" fill="#f0e8d8"/>
  </g>
  <g transform="translate(225.15,0)">
    <path d="M45.46223564954683 59.800604229607245Q45.46223564954683 62.79154078549849 44.797583081571 65.64954682779457Q44.13293051359517 68.50755287009063 42.338368580060425 71.56495468277946Q40.54380664652568 74.62235649546828 37.75226586102719 76.8489425981873Q34.9607250755287 79.07552870090635 30.341389728096676 80.53776435045317Q25.72205438066465 82.0 19.87311178247734 82.0H0.9969788519637462V80.73716012084593Q4.785498489425982 80.47129909365559 5.81570996978852 79.40785498489426Q6.8459214501510575 78.34441087613293 6.8459214501510575 74.75528700906344V45.244712990936556Q6.8459214501510575 41.58912386706949 5.882175226586103 40.59214501510574Q4.918429003021148 39.59516616314199 0.9969788519637462 39.26283987915408V38.0H18.94259818731118Q24.99093655589124 38.0 29.74320241691843 39.36253776435045Q34.49546827794562 40.725075528700906 37.38670694864048 42.88519637462235Q40.27794561933535 45.04531722054381 42.17220543806647 48.003021148036254Q44.066465256797585 50.9607250755287 44.764350453172206 53.81873111782477Q45.46223564954683 56.676737160120844 45.46223564954683 59.800604229607245ZM38.21752265861027 60.26586102719033Q38.21752265861027 57.40785498489426 37.65256797583082 54.78247734138973Q37.08761329305136 52.1570996978852 35.625377643504535 49.46525679758308Q34.1631419939577 46.77341389728097 31.836858006042295 44.84592145015105Q29.51057401812689 42.918429003021146 25.72205438066465 41.68882175226586Q21.93353474320242 40.45921450151057 17.08157099697885 40.45921450151057Q15.021148036253777 40.45921450151057 14.323262839879154 40.99093655589124Q13.625377643504532 41.522658610271904 13.625377643504532 43.051359516616316V76.81570996978851Q13.625377643504532 78.41087613293051 14.356495468277945 78.97583081570997Q15.08761329305136 79.54078549848943 17.08157099697885 79.54078549848943Q38.21752265861027 79.54078549848943 38.21752265861027 60.26586102719033Z" fill="#f0e8d8"/>
  </g>
  <g transform="translate(286.94,0)">
    <path d="M7.444108761329305 74.75528700906344V45.244712990936556Q7.444108761329305 41.58912386706949 6.347432024169184 40.55891238670695Q5.2507552870090635 39.52870090634441 0.9969788519637462 39.26283987915408V38.0H20.73716012084592V39.26283987915408Q16.54984894259819 39.46223564954683 15.386706948640484 40.52567975830816Q14.22356495468278 41.58912386706949 14.22356495468278 45.244712990936556V74.75528700906344Q14.22356495468278 78.41087613293051 15.419939577039276 79.50755287009063Q16.61631419939577 80.60422960725076 20.73716012084592 80.73716012084593V82.0H0.9969788519637462V80.73716012084593Q5.18429003021148 80.60422960725076 6.314199395770393 79.54078549848943Q7.444108761329305 78.4773413897281 7.444108761329305 74.75528700906344Z" fill="#e8a45a" opacity="0.48"/>
  </g>
  <g transform="translate(312.68,0)">
    <path d="M2.326283987915408 60.398791540785496Q2.326283987915408 50.03021148036254 8.706948640483384 43.54984894259819Q15.08761329305136 37.06948640483384 24.59214501510574 37.06948640483384Q28.845921450151057 37.06948640483384 32.56797583081571 38.16616314199396Q36.290030211480364 39.26283987915408 36.888217522658614 39.26283987915408Q39.081570996978854 39.26283987915408 39.6797583081571 37.06948640483384H41.07552870090635L41.67371601208459 52.090634441087616H40.145015105740185Q36.48942598187311 39.72809667673716 25.854984894259818 39.72809667673716Q18.610271903323262 39.72809667673716 14.323262839879154 45.11178247734139Q10.036253776435046 50.49546827794562 10.036253776435046 59.53474320241692Q10.036253776435046 65.31722054380664 11.531722054380666 69.53776435045316Q13.027190332326285 73.75830815709969 15.552870090634443 75.91842900302115Q18.0785498489426 78.0785498489426 20.770392749244714 79.04229607250755Q23.462235649546827 80.00604229607251 26.51963746223565 80.00604229607251Q34.362537764350456 80.00604229607251 41.34138972809668 73.29305135951661L42.53776435045317 74.48942598187311Q39.48036253776435 78.54380664652568 34.76132930513595 80.73716012084591Q30.042296072507554 82.93051359516616 24.39274924471299 82.93051359516616Q14.555891238670695 82.93051359516616 8.441087613293051 76.74924471299093Q2.326283987915408 70.56797583081571 2.326283987915408 60.398791540785496Z" fill="#e8a45a" opacity="0.48"/>
  </g>
  <g transform="translate(361.21,0)">
    <path d="M47.190332326283986 39.26283987915408Q45.329305135951664 39.46223564954683 44.43202416918429 39.69486404833837Q43.53474320241692 39.92749244712991 42.570996978851966 40.725075528700906Q41.60725075528701 41.522658610271904 41.24169184290031 43.21752265861027Q40.8761329305136 44.91238670694864 40.8761329305136 47.770392749244714V82.73111782477342H39.74622356495468L10.36858006042296 46.17522658610272V72.2296072507553Q10.36858006042296 77.2809667673716 11.564954682779456 78.90936555891238Q12.761329305135952 80.53776435045317 16.61631419939577 80.73716012084593V82.0H0.9969788519637462V80.73716012084593Q5.117824773413897 80.47129909365559 6.280966767371601 78.90936555891238Q7.444108761329305 77.34743202416918 7.444108761329305 72.2296072507553V42.918429003021146Q5.450151057401813 40.592145015105736 4.287009063444109 39.92749244712991Q3.123867069486405 39.26283987915408 0.9969788519637462 39.26283987915408V38.0H12.362537764350453L37.95166163141994 70.16918429003022V47.770392749244714Q37.95166163141994 42.7190332326284 36.72205438066465 41.157099697885194Q35.492447129909365 39.59516616314199 31.570996978851966 39.26283987915408V38.0H47.190332326283986Z" fill="#e8a45a" opacity="0.48"/>
  </g>

  <!-- divider -->
  <line x1="136" y1="95" x2="429" y2="95" stroke="#2e2820" stroke-width="1"/>

  <!-- tagline -->
  <text x="136" y="116"
    font-family="Georgia, serif"
    font-size="13" font-style="italic"
    fill="#c4b090">Code is a conversation between the present self and the future self.</text>

</svg>
